<?xml version="1.0" encoding="utf-8"?>
<!-- Generator: Adobe Illustrator 26.5.1, SVG Export Plug-In . SVG Version: 6.00 Build 0)  -->
<svg version="1.1" id="Layer_1" xmlns="http://www.w3.org/2000/svg" xmlns:xlink="http://www.w3.org/1999/xlink" x="0px" y="0px"
	 viewBox="0 0 287.8 129.7" style="enable-background:new 0 0 287.8 129.7;" xml:space="preserve">
<style type="text/css">
	.st0{fill-rule:evenodd;clip-rule:evenodd;fill:#FFFFFF;}
	.st1{fill:#FFFFFF;}
</style>
<g>
	<path class="st0" d="M25.3,86c8.4,0,22,0,26.7,0.5c-4.7,0.4-18.4,0.5-26.7,0.5C16.9,86.9,16.8,86,25.3,86L25.3,86z M105.4,83.1h4.9
		c0.5,0.1,0.9,0.4,1.2,0.9c0.3,0.4,0.5,0.9,0.6,1.5c-1.7,0-3.4,0-5.3,0C106.6,84.4,106.1,83.4,105.4,83.1L105.4,83.1z M112,87.4
		c-0.1,0.6-0.3,1.1-0.6,1.5c-0.3,0.5-0.7,0.8-1.2,0.9h-4.8c0.8-0.3,1.2-1.3,1.3-2.5C108.6,87.4,110.4,87.4,112,87.4L112,87.4z
		 M24.5,87.6c-13.4,8.9-10.8,16.9-3.3,17.7c8.9,0.9,25-6.9,31.8-16.4c10.2,0.4,40.6,0.7,50.9,1c0.9,0,1.4-1.1,1.6-2.5
		c-10.8,0-44-0.2-49.2-0.9c5.2-0.7,38.3-0.9,49.1-0.9c-0.2-1.4-0.7-2.5-1.6-2.5c-10.3,0.3-40.6,0.6-50.9,1
		c-6.9-9.5-22.9-17.3-31.8-16.4c-7.5,0.8-10.1,8.8,3.3,17.7c-2.5,0.1-4.9,0.3-7.4,0.4c-1.6,0.1-1.5,1.4,0,1.5
		C19.5,87.3,22,87.5,24.5,87.6L24.5,87.6z M124.8,85.7l10.1,0l4.7,0.7l-4.7,0.7h-10.1C124.9,86.7,124.9,86.2,124.8,85.7L124.8,85.7z
		 M111.7,83.1c0.1,0.1,0.2,0.3,0.4,0.4c0.4,0.5,0.6,1.2,0.8,2c0.3,0,0.6,0,0.9,0c-0.1-0.6-0.3-1.1-0.6-1.6c-0.3-0.5-0.7-0.8-1.2-0.9
		H111.7L111.7,83.1z M113.7,87.4c-0.3,0-0.6,0-0.9,0c-0.1,0.8-0.4,1.5-0.8,2c-0.1,0.2-0.2,0.3-0.4,0.4h0.2c0.4-0.1,0.9-0.4,1.2-0.9
		C113.4,88.5,113.6,88,113.7,87.4L113.7,87.4z M113.4,83.1h6.5c0.5,0.2,0.9,0.5,1.3,0.9c0.6,0.6,1,1.5,1,2.5c0,1-0.4,1.9-1,2.5
		c-0.4,0.4-0.8,0.7-1.3,0.8h-6.5c0.1-0.1,0.2-0.3,0.4-0.4c0.4-0.5,0.7-1.2,0.8-2c8.9-0.2,9-1.6,0-1.8c-0.1-0.8-0.4-1.5-0.8-2
		C113.7,83.4,113.6,83.3,113.4,83.1L113.4,83.1z M121,83.1c0.2,0.1,0.4,0.3,0.5,0.5c0.7,0.7,1.1,1.7,1.1,2.9c0,1.1-0.4,2.1-1.1,2.9
		c-0.2,0.2-0.3,0.3-0.5,0.5h0.1C125.4,89.8,125.4,83.1,121,83.1L121,83.1z"/>
</g>
<g>
	<path class="st1" d="M113.7,62.8c-6.7,0-9.7-4.7-12.3-9.7c-4.9,5-10.6,9.1-16.7,9.1c-4.2,0-7.4-3.3-7.4-7.9
		c0-8.5,7.3-17.3,16.8-17.3c3.6,0,6.2,1.4,8.1,3.4c1.4-2,2.7-4,4.1-6c4.4-6.8,10.2-13,16-17.1c-1.5-0.3-3.2-0.4-5-0.4
		c-11.6,0-22.2,7.7-22.2,12.3c0,0.6,0.8,1.2,1.6,1.2c5.8,0,10.9-7.9,11.8-9.6c0.1-0.2,0.3-0.3,0.3-0.3c0.1,0,0.3,0.3,0.3,0.5
		c0,10.4-7.2,15.2-12.7,15.2c-3.4,0-6.1-1.8-6.1-5.2c0-6.1,12.3-16.8,29.1-16.8c2.4,0,4.7,0.3,6.8,0.8c3-1.6,5.9-2.5,8.5-2.5
		c1.8,0,2.7,0.5,2.7,0.8c0,0.3-0.3,0.3-1.6,0.3c-1.9,0-3.9,1-6,2.7c5.9,2.7,9.5,8.5,9.5,17.3C139.5,47.3,128.1,62.8,113.7,62.8z
		 M91.1,41.8c-5.9,0-10.9,4.9-10.9,10.5c0,2.7,1.8,4.5,4,4.5c3.8,0,8.7-4.5,13.6-10.6C96.2,43.7,94.2,41.8,91.1,41.8z M126.7,19.4
		c-5.3,5.9-10.4,14.8-14.2,19.9c-1.6,2.3-3.7,5.1-6,8.1c2.1,4.4,3.9,8.8,8.2,8.8c10,0,15.9-14,15.9-25.1
		C130.6,26,129.3,21.6,126.7,19.4z"/>
	<path class="st1" d="M159.4,62.2c-4.4,0-5.3-5.1-5.5-5.1s-4.7,5.7-9.9,5.7c-3.4,0-6.8-2.7-6.8-8.3c0-9.1,10.7-23.4,20.9-23.4
		c5,0,5.5,4.3,5.6,4.3c0.3,0,3.6-4,4.7-4c1.1,0,1.1,0.2,1.8,0.3c0.6,0.1,1.5,0.3,1.5,1.1c0,3.4-10.9,18.7-10.9,22.6
		c0,0.6,0.3,1.1,0.9,1.1c3.9,0,10.4-11,11.1-11c0.5,0,0.8,1.1,0.8,2.2C173.8,48.8,164.8,62.2,159.4,62.2z M157.2,34.5
		c-5,0-12.3,12.9-12.3,19c0,2,0.7,3.1,1.9,3.1c1.6,0,5.9-3,5.9-4.2c0-0.5-1.3-0.6-1.8-0.6v-0.5c1.6-0.4,8.8-7.7,8.8-13.5
		C159.8,35.9,158.8,34.5,157.2,34.5z"/>
	<path class="st1" d="M182.8,62.5c-3.9,0-6.9-2.3-6.9-6.8c0-6,8.3-17.2,8.3-17.4c0-0.1-2.1-1-3.1-1c-0.3,0-0.4,0-0.5,0.2
		c-3,4.9-6,9.4-8.2,12.6c-0.2,0.3-0.4,0.5-0.7,0.5c-0.5,0-0.9-0.8-0.9-1.9c0-0.4,0.3-1.1,0.5-1.4c0.8-1.2,2.4-3.6,4.1-7.1
		c1.9-3.7,2.2-6.4,3.4-9.1c1.2-3.1,2.2-3.7,4.2-3.7c0.9,0,1.4,0.5,1.4,1.6c0,1.2-0.6,1.8-0.6,1.9c0,0.3,0.3,0.4,1.4,0.4
		c2.9,0,6.4-0.5,7.2-0.5c1.8,0,4,3.4,4,4.8c0,1.1-1.9,2.1-3.3,3.6c-2.3,2.5-8.8,11.5-8.8,16.3c0,0.4,0.3,0.9,0.9,0.9
		c1.5,0,4.4-2.4,6.5-5c2.3-2.8,4.4-5.9,4.7-5.9c0.5,0,0.8,1.1,0.8,2.2C197.3,49.1,188.3,62.5,182.8,62.5z"/>
	<path class="st1" d="M213.8,34c-0.8,0-0.6,0-3.3,0c-4.6,8.5-9.3,17-9.3,19.8c0,2.1,1.4,2.5,2.2,2.5c3.9,0,10.5-11,11.1-11
		c0.5,0,0.8,1.1,0.8,2.2c0,1.2-9.2,14.9-14.6,14.9c-4,0-8.6-2.3-8.6-5.9c0-4.4,6.6-15.8,9.7-21.5l0.8-1.4c-1.2-0.1-3.2-0.5-3.2-2.1
		c0-1.1,0-2.1,0.1-2.5c0-0.3,0.2-0.4,0.6-0.4c0.3,0,1.2,0,1.9,0c0.9,0,2.7-0.3,3.3-0.3c2.7-5,5.8-10.4,6.5-10.4c2.8,0,4.6,2.6,4.6,4
		c0,0.8-0.9,2.6-3.2,6.8h3.3c1.2,0,1.8,0.3,1.8,0.9C218.3,32,215.7,34,213.8,34z"/>
	<path class="st1" d="M237.3,41.1c-0.3,1.5-0.7,3.4-1.2,5.5c0.5,0.2,1.1,0.3,1.4,0.3c1.3,0,1.5-0.8,1.6-0.8c0.3,0,0.3,0,0.3,0.3v0.1
		c0,3.6-2.3,5.7-4.7,5.7c-0.2,0-0.3,0-0.5,0c-3,7.5-9.1,10.7-14.6,10.7c-5.4,0-10-3.3-10-9c0-5.2,4.3-10.8,10.7-10.8
		c0.9,0,1.7,0,2.6,0.2c1.8-2.1,4-4.8,5.9-7.7c3.5-5,8.4-7.9,10.7-7.9c1.5,0,2.7,0.5,2.7,1.4C242.5,30.4,238.5,35.9,237.3,41.1z
		 M220.5,49.8c-4.1,0-6.2,2.6-6.2,5c0,1.9,1.4,3.7,4.2,3.7c2.8,0,6.4-2.1,8.3-7.7C224.5,50.2,222.5,49.8,220.5,49.8z M229.8,39.3
		c-0.5,0.7-2.1,2.7-3.7,4.7c0.8,0.3,1.6,0.4,2.4,0.7c0.6-2.3,1.1-4.1,1.5-5.2L229.8,39.3z"/>
</g>
<g>
	<path class="st1" d="M180.9,86.9c-3.3,0-6.5-0.8-9.2-2.1c-5.1,5.3-9,11.4-9,16.2c0,2.8,2,4.6,4.9,4.6c7.8,0,13-7.4,13-11
		c0-1.1-0.7-1.6-1.8-1.6c-1.8,0-4.3,2-4.7,4.7c-0.1,0.3,0,0.5-0.3,0.5s-0.7-1-0.7-2.1c0-3,2.6-6.3,6.7-6.3c3,0,4.3,1.7,4.3,4.2
		c0,5.9-7.7,16-18.3,16c-5.7,0-10.1-3.8-10.1-9.3c0-6.5,4.7-13.7,11.3-19.5c-2.2-2.5-3.6-5.8-3.6-9.6c0-2.9,2.1-5.5,2.8-5.5
		c0.1,0,0.1,0,0.1,0.1c0,0.2,0,0.5,0,1.1c0,4.4,1.5,8.2,4.5,10.8c6.7-5,14.6-8.3,20.6-8.3c4.4,0,6.9,2.1,6.9,4.9
		C198.4,79.9,191.1,86.9,180.9,86.9z M191.1,72.1c-3.4,0-9.6,3.6-15.3,8.7c1.9,0.6,4.1,0.9,6.5,0.9c7,0,12.1-3.9,12.1-6.9
		C194.5,72.9,193.1,72.1,191.1,72.1z"/>
	<path class="st1" d="M195.4,99.9c-0.5,1.5-0.8,2.9-0.8,4.1c0,1,0.9,1.8,2,1.8c4.8,0,11-10.5,11.5-10.5c0.5,0,0.7,1.1,0.7,1.6
		c0,1.8-7.8,12.4-14.4,12.4c-3,0-5.9-3.2-5.9-5.6c0-8.1,13.8-32.6,23.5-32.6c2,0,3.6,1.2,3.6,2C215.7,75.2,204.2,95.2,195.4,99.9z
		 M211.5,75.3c-0.8,0-9.1,10.2-13.8,19.2c5.5-4.4,13.9-18.2,13.9-19.1C211.6,75.4,211.6,75.3,211.5,75.3z"/>
	<path class="st1" d="M221.7,109.3c-2.4,0-4.7-1.9-4.7-4.5c0-0.5,0-0.7,0-1c-0.8,1.2-4.7,5.5-7,5.5c-2.3,0-4.6-2.9-4.6-5.8
		c0-6.2,7.9-19,10.5-20c0.2,0,0.7-0.1,1.3-0.1c1.3,0,3,0.3,3,1.1c0,0.1,0,0.3-0.2,0.4c-1.1,2-8.7,15.3-8.7,18.8
		c0,0.8,0.3,1.1,0.7,1.1c1.2,0,5.3-4.6,8.2-9.5c2.5-4.2,5.8-11.8,6.9-11.8c2.5,0,4.4,0.8,4.4,1.8c0,1.4-0.8,2.6-1.5,4
		c-0.7,1.4-6.4,11.7-6.4,13.9c0,0.6,0.2,1.1,1.2,1.1c2.6,0,8.2-9.1,8.5-9.1c0.5,0,0.7,0.8,0.7,1.7
		C234.2,98.4,226.7,109.3,221.7,109.3z"/>
	<path class="st1" d="M238.1,109.2c-3.4,0-6.9-1.7-6.9-8.3c0-2.3,3.8-9,7.7-15.5c4.3-7.2,8.3-14.2,10.8-14.2c1.4,0,3.4,1,3.4,1.6
		c0,0.7-2.3,3.9-3.6,6.1c-1.4,2.2-3.3,5.5-3.3,5.7l0.1,0c1.3-0.7,2.6-1.1,3.8-1.1c2.8,0,4.7,2,4.7,6
		C254.8,97.3,247.9,109.2,238.1,109.2z M247.6,86.5c-1.8,0-3.3,1.9-4.1,2.7c-0.8,0.8-7.2,12.9-7.2,15.2c0,0.8,0.5,1.6,1.8,1.6
		c4,0,11.5-12,11.5-17.1C249.6,87.9,249,86.5,247.6,86.5z"/>
</g>
</svg>
